<svg id="Layer_1" data-name="Layer 1" xmlns="http://www.w3.org/2000/svg" viewBox="0 0 481.54 78.55"><defs><style>.cls-1{fill:#fff;stroke:#000;stroke-miterlimit:10;}</style></defs><title>stars</title><polygon class="cls-1" points="41.3 1.13 53.73 26.32 81.52 30.35 61.41 49.96 66.16 77.64 41.3 64.57 16.44 77.64 21.19 49.96 1.07 30.35 28.87 26.32 41.3 1.13"/><polygon class="cls-1" points="140.6 1.13 153.03 26.32 180.82 30.35 160.71 49.96 165.46 77.64 140.6 64.57 115.74 77.64 120.49 49.96 100.38 30.35 128.17 26.32 140.6 1.13"/><polygon class="cls-1" points="239.9 1.13 252.33 26.32 280.12 30.35 260.01 49.96 264.76 77.64 239.9 64.57 215.04 77.64 219.79 49.96 199.68 30.35 227.47 26.32 239.9 1.13"/><polygon class="cls-1" points="440.24 1.13 452.67 26.32 480.46 30.35 460.35 49.96 465.1 77.64 440.24 64.57 415.38 77.64 420.13 49.96 400.02 30.35 427.81 26.32 440.24 1.13"/><polygon class="cls-1" points="340.07 1.13 352.5 26.32 380.29 30.35 360.18 49.96 364.93 77.64 340.07 64.57 315.21 77.64 319.96 49.96 299.85 30.35 327.64 26.32 340.07 1.13"/></svg>